<?xml version="1.0" encoding="UTF-8" standalone="no"?>
<!-- Created with Inkscape (http://www.inkscape.org/) -->

<svg
   xmlns:dc="http://purl.org/dc/elements/1.1/"
   xmlns:cc="http://creativecommons.org/ns#"
   xmlns:rdf="http://www.w3.org/1999/02/22-rdf-syntax-ns#"
   xmlns:svg="http://www.w3.org/2000/svg"
   xmlns="http://www.w3.org/2000/svg"
   xmlns:sodipodi="http://sodipodi.sourceforge.net/DTD/sodipodi-0.dtd"
   xmlns:inkscape="http://www.inkscape.org/namespaces/inkscape"
   width="1220mm"
   height="610mm"
   viewBox="0 0 1220 610"
   version="1.1"
   id="svg1144"
   sodipodi:docname="dessin passeport.svg"
   inkscape:version="0.92.0 r15299">
  <defs
     id="defs1138" />
  <sodipodi:namedview
     id="base"
     pagecolor="#ffffff"
     bordercolor="#666666"
     borderopacity="1.0"
     inkscape:pageopacity="0.0"
     inkscape:pageshadow="2"
     inkscape:zoom="1"
     inkscape:cx="546.61932"
     inkscape:cy="2121.6763"
     inkscape:document-units="mm"
     inkscape:current-layer="layer1-2"
     showgrid="false"
     inkscape:window-width="1920"
     inkscape:window-height="1001"
     inkscape:window-x="-9"
     inkscape:window-y="-9"
     inkscape:window-maximized="1" />
  <metadata
     id="metadata1141">
    <rdf:RDF>
      <cc:Work
         rdf:about="">
        <dc:format>image/svg+xml</dc:format>
        <dc:type
           rdf:resource="http://purl.org/dc/dcmitype/StillImage" />
        <dc:title></dc:title>
      </cc:Work>
    </rdf:RDF>
  </metadata>
  <g
     inkscape:label="Calque 1"
     inkscape:groupmode="layer"
     id="layer1"
     transform="translate(0,313)">
    <g
       id="g6946"
       transform="matrix(1.0000126,0,0,1.0000126,5.0775414,-309.60442)">
      <g
         transform="translate(-23.799996,-34.299998)"
         style="display:inline"
         id="layer1-2"
         inkscape:label="Layer 1">
        <path
           id="path4499"
           d="m 31.82504,43.354087 a 2.5,2.5 0 0 1 -2.5,2.5 2.5,2.5 0 0 1 -2.5,-2.5 2.5,2.5 0 0 1 2.5,-2.5 2.5,2.5 0 0 1 2.5,2.5 z"
           style="fill:none;fill-opacity:1;stroke:#ff0000;stroke-width:0.40000001;stroke-linecap:round;stroke-linejoin:round;stroke-miterlimit:4;stroke-dasharray:none;stroke-dashoffset:0;stroke-opacity:1"
           inkscape:connector-curvature="0" />
        <path
           id="circle4517"
           d="m 176.82513,43.354087 a 2.5,2.5 0 0 1 -2.5,2.5 2.5,2.5 0 0 1 -2.5,-2.5 2.5,2.5 0 0 1 2.5,-2.5 2.5,2.5 0 0 1 2.5,2.5 z"
           style="fill:none;fill-opacity:1;stroke:#ff0000;stroke-width:0.40000001;stroke-linecap:round;stroke-linejoin:round;stroke-miterlimit:4;stroke-dasharray:none;stroke-dashoffset:0;stroke-opacity:1"
           inkscape:connector-curvature="0" />
        <path
           inkscape:connector-curvature="0"
           id="path4556"
           d="M 101.82504,31.854187 V 145.9988"
           style="display:inline;fill:none;fill-rule:evenodd;stroke:#ff0000;stroke-width:0.18720728px;stroke-linecap:butt;stroke-linejoin:miter;stroke-opacity:1" />
        <g
           id="g5187"
           transform="translate(-3.17496,-2.6458)">
          <path
             id="path6585"
             style="fill:none;fill-opacity:1;stroke:#ff0000;stroke-width:0.49999413;stroke-linecap:round;stroke-miterlimit:4;stroke-dasharray:none;stroke-opacity:1"
             d="m 46.502659,80.535679 c 0.006,0 0.0138,-1.9e-4 0.0203,0 9.1236,-0.81583 21.88693,-8.25738 22.01484,-8.33242 0.0911,-0.0532 0.13413,-0.16219 0.10425,-0.26365 -0.0302,-0.101 -0.11828,-0.16495 -0.23057,-0.16473 -8.62001,0.37089 -16.04179,3.18255 -22.05875,8.35706 -0.0759,0.0651 -0.10081,0.17182 -0.0622,0.26385 0.0362,0.0861 0.12014,0.14082 0.21194,0.14082 z m 34.7155,19.828041 c -16.53294,2.84273 -26.09781,10.17593 -26.19238,10.24981 -0.0835,0.0649 -0.11182,0.17828 -0.069,0.27491 0.0373,0.0842 0.12059,0.13668 0.21031,0.13668 0.0133,0 0.0268,0 0.04,-0.005 0.27565,-0.0489 0.62323,-0.10174 1.03693,-0.16476 3.86397,-0.5878 14.12804,-2.14887 25.14746,-10.07981 0.0869,-0.0623 0.11941,-0.17692 0.0778,-0.27564 -0.0411,-0.0984 -0.14379,-0.15621 -0.25123,-0.13755 m 0,0 v 0 m 4.33612,-9.308561 c -0.0356,-0.1042 -0.14173,-0.16815 -0.24872,-0.15389 -22.0332,2.964 -38.61866,15.122681 -38.78364,15.245001 -0.0879,0.0652 -0.1178,0.18344 -0.0713,0.28258 0.0384,0.0822 0.12054,0.13231 0.20825,0.13231 0.0181,0 0.0362,0 0.0543,-0.006 20.96462,-5.09579 38.56236,-15.125191 38.7377,-15.226001 0.0957,-0.0549 0.13869,-0.16931 0.10355,-0.2735 z m -0.46958,-8.38844 c -0.0307,-0.10513 -0.13363,-0.17391 -0.24087,-0.16403 -21.61914,1.90724 -41.29853,16.313029 -41.49481,16.458199 -0.0856,0.0632 -0.11636,0.177378 -0.0745,0.275388 0.0367,0.0859 0.12057,0.13967 0.21144,0.13967 0.0124,0 0.0257,0 0.0389,-0.005 7.07878,-1.219408 26.72554,-8.665347 41.44629,-16.437287 0.097,-0.051 0.14444,-0.16357 0.11343,-0.2685 z m -41.6211,8.76543 c 0.0243,0 0.0483,-0.005 0.0722,-0.0116 7.14733,-2.36446 34.07234,-13.66935 37.70258,-15.69258 0.0948,-0.0532 0.13967,-0.16495 0.10792,-0.26872 -0.0323,-0.10403 -0.13688,-0.16936 -0.24042,-0.16152 -12.78544,1.14508 -22.37955,5.36083 -28.1768,8.69595 -6.28758,3.61689 -9.59823,7.01477 -9.63091,7.04883 -0.0734,0.0761 -0.0857,0.19256 -0.0291,0.28225 0.0428,0.0684 0.11735,0.1075 0.19465,0.1075 z"
             inkscape:connector-curvature="0" />
          <rect
             style="fill:none;fill-opacity:1;stroke:#00ff00;stroke-width:0.39999497;stroke-linecap:round;stroke-linejoin:round;stroke-miterlimit:4;stroke-dasharray:none;stroke-dashoffset:0;stroke-opacity:1"
             id="rect5183"
             width="162"
             height="114"
             x="23.999996"
             y="34.5" />
        </g>
      </g>
      <g
         transform="translate(-23.799996,-34.299998)"
         style="display:inline"
         inkscape:label="Layer 2"
         id="layer2" />
    </g>
    <g
       transform="matrix(1.0000112,0.0016844,-0.0016844,1.0000112,-22.210932,-346.46639)"
       style="display:inline"
       inkscape:label="Layer 2"
       id="g6992" />
  </g>
</svg>
